<svg xmlns="http://www.w3.org/2000/svg" xmlns:xlink="http://www.w3.org/1999/xlink" width="600" zoomAndPan="magnify" viewBox="0 0 450 449.999984" height="600" preserveAspectRatio="xMidYMid meet" version="1.0"><defs><g/></defs><path fill="#292929" d="M 45 45 L 45 405 L 405 405 L 405 45 L 45 45 M 402.390625 402.390625 L 47.554688 402.390625 L 47.554688 47.554688 L 402.390625 47.554688 L 402.390625 402.390625 " fill-opacity="1" fill-rule="nonzero"/><g fill="#292929" fill-opacity="1"><g transform="translate(72.30319, 264.896464)"><g><path d="M 143.757812 -18.398438 C 136.886719 -11.773438 128.546875 -5.640625 117.507812 -3.1875 C 76.539062 8.09375 40.722656 -30.664062 30.910156 -68.199219 C 21.34375 -105.488281 32.382812 -157.003906 74.085938 -168.53125 C 126.09375 -183.007812 152.34375 -127.566406 153.570312 -124.621094 L 153.570312 -150.132812 C 153.570312 -150.132812 127.808594 -185.214844 73.839844 -170.25 C 26.984375 -157.984375 -0.734375 -109.902344 11.773438 -63.292969 C 24.53125 -16.679688 72.367188 11.53125 117.996094 -1.960938 C 136.398438 -6.625 151.851562 -16.679688 162.398438 -30.175781 L 162.398438 -81.445312 L 68.6875 -81.445312 L 68.6875 -62.554688 C 86.105469 -78.5 113.828125 -79.484375 143.757812 -79.484375 Z M 143.757812 -18.398438 "/></g></g></g><g fill="#292929" fill-opacity="1"><g transform="translate(206.966066, 356.88069)"><g><path d="M 157.625 -173.605469 C 105.492188 -173.605469 89.753906 -100.574219 85.082031 -44.015625 L 29.015625 -173.605469 L 8.605469 -173.605469 L 8.605469 0 L 10.082031 0 L 10.082031 -169.179688 L 16.96875 -152.953125 L 83.359375 0 L 85.820312 0 C 85.820312 -44.753906 89.753906 -147.050781 138.933594 -167.707031 L 138.933594 0 L 157.625 0 Z M 157.625 -173.605469 "/></g></g></g><path stroke-linecap="round" transform="matrix(5.33445, -6.203293, 5.887264, 5.062684, 226.187172, 238.578687)" fill="none" stroke-linejoin="miter" d="M 0.50013 0.0000645302 L 2.067347 -0.0000828956 " stroke="#292929" stroke-width="1" stroke-opacity="1" stroke-miterlimit="4"/></svg>